<svg width="418" height="418" xmlns="http://www.w3.org/2000/svg">
 <g>
  <title>Layer 1</title>
  <g>
   <metadata/>
   <g fill="#000000" transform="translate(166.635 654.043) scale(0.061042 -0.061042)">
    <path d="m1805.93384,10722.82446c-55,-19 -87,-54 -182,-204c-47,-74 -128,-196 -178,-270c-247,-361 -567,-910 -917,-1570c-73,-138 -411,-812 -483,-965c-68,-144 -291,-640 -350,-780c-23,-55 -81,-192 -129,-305c-105,-247 -187,-442 -256,-610c-47,-113 -77,-191 -202,-520c-78,-205 -200,-568 -254,-754c-30,-105 -56,-191 -58,-193c-2,-2 -6,53 -10,122c-4,68 -14,169 -22,222c-13,92 -23,133 -74,323c-11,41 -32,138 -45,215c-43,245 -49,247 -62,25c-9,-168 -8,-431 3,-1035c9,-422 9,-431 32,-477c39,-79 110,-113 186,-88c65,21 76,40 199,335c234,560 298,697 505,1075c47,85 160,295 252,465c93,171 192,353 220,405c29,52 68,124 88,160c136,252 394,690 570,970c212,337 646,970 671,978c4,1 11,-34 15,-80c27,-329 122,-826 223,-1168c13,-47 31,-107 38,-135c20,-71 139,-430 170,-511c67,-177 159,-381 277,-619c72,-143 133,-264 137,-270c5,-5 34,-59 66,-120c32,-60 68,-126 80,-145c12,-19 43,-74 68,-122c56,-102 95,-145 142,-154c50,-9 83,2 122,41c25,25 33,41 33,69c0,43 -14,72 -125,261c-159,272 -264,462 -359,652c-53,105 -96,194 -96,198c0,3 -9,25 -19,48c-95,211 -240,645 -346,1037c-97,358 -174,803 -197,1141l-12,176l174,234c219,296 335,440 530,658c85,96 178,200 205,231c28,32 106,118 174,191c68,74 141,156 163,182c64,82 41,131 -34,70c-18,-15 -226,-218 -463,-452c-387,-383 -565,-575 -737,-792l-27,-34l0,70c-1,39 4,108 9,155c5,47 14,130 20,185c13,123 55,363 76,430c28,90 180,472 236,594c17,36 50,116 74,178c55,138 58,197 17,243c-35,39 -87,52 -138,34zm-455,-1175c-27,-93 -70,-591 -70,-819l-1,-175l-92,-125c-458,-616 -944,-1375 -1325,-2070c-140,-256 -502,-969 -502,-990c0,-5 -4,-10 -10,-10c-5,0 7,44 26,98c20,53 51,138 69,187c82,223 267,671 458,1105c288,658 353,798 584,1260c212,424 362,709 563,1065c17,31 239,410 280,478c27,45 33,44 20,-4z"/>
   </g>
  </g>
 </g>

</svg>